<svg width="131" height="32" viewBox="0 0 131 32" fill="none" xmlns="http://www.w3.org/2000/svg">
<mask id="mask0_230_6924" style="mask-type:luminance" maskUnits="userSpaceOnUse" x="102" y="16" width="9" height="8">
<mask id="mask1_230_6924" style="mask-type:luminance" maskUnits="userSpaceOnUse" x="2" y="2" width="120" height="28">
<path d="M121.309 2.49316H2.5307V29.4848H121.309V2.49316Z" fill="white"/>
</mask>
<g mask="url(#mask1_230_6924)">
<path d="M109.995 18.0614C109.926 17.793 109.792 17.5457 109.605 17.3408C109.418 17.1359 109.184 16.9796 108.924 16.8856C108.267 16.5804 107.549 16.4302 106.825 16.4465C105.829 16.4422 104.847 16.6825 103.966 17.1461C103.522 17.3478 103.131 17.6486 102.821 18.0253C102.511 18.4019 102.292 18.8445 102.18 19.3191C102.126 19.504 102.089 19.6932 102.068 19.8847C102.05 20.0653 102.05 20.2473 102.068 20.4279C102.054 20.9944 102.193 21.5543 102.471 22.0482C102.748 22.5421 103.155 22.9517 103.646 23.2335C104.416 23.7218 105.31 23.98 106.222 23.9777C107.026 23.958 107.799 23.6609 108.41 23.1368C108.747 22.9084 109.025 22.603 109.221 22.2458C109.416 21.8885 109.523 21.4899 109.534 21.0828C109.548 20.5773 109.454 20.0747 109.257 19.6088C109.061 19.1428 108.767 18.7243 108.395 18.3814C108.194 18.146 107.944 17.9573 107.663 17.8288C107.381 17.7002 107.075 17.6348 106.765 17.6372H106.534C106.298 17.6416 106.065 17.6933 105.849 17.7892C105.633 17.885 105.438 18.0231 105.276 18.1954C104.846 18.5642 104.565 19.0777 104.487 19.6391L104.435 20.093C104.43 20.3547 104.486 20.6139 104.599 20.8502C104.711 21.0865 104.877 21.2935 105.083 21.4549C105.558 21.8373 106.156 22.0332 106.765 22.0056C106.966 21.941 107.14 21.8097 107.256 21.6335C107.339 21.4407 107.379 21.2328 107.375 21.0233L107.293 20.4726L107.13 19.6912L106.207 20.0261L106.326 20.1302C106.418 20.2765 106.46 20.4491 106.445 20.6214C106.445 20.6214 106.445 20.6884 106.363 20.7405C106.281 20.7926 106.095 20.6214 105.902 20.4056C105.717 20.2065 105.559 19.9838 105.433 19.7433C105.382 19.6338 105.356 19.5142 105.358 19.3935C105.356 19.2694 105.383 19.1465 105.436 19.0343C105.488 18.9221 105.566 18.8234 105.663 18.7461C105.747 18.6632 105.85 18.6032 105.964 18.5719C106.077 18.5406 106.197 18.5391 106.311 18.5675C106.58 18.6351 106.83 18.7654 107.04 18.9477C107.249 19.13 107.413 19.3593 107.517 19.6168C107.782 20.1372 107.915 20.7148 107.904 21.2986C107.912 21.5821 107.859 21.864 107.748 22.1247C107.62 22.3825 107.399 22.582 107.13 22.6828C106.799 22.8292 106.442 22.9029 106.08 22.8986C105.501 22.9221 104.935 22.7193 104.502 22.333C104.254 22.0757 104.061 21.7712 103.933 21.4375C103.805 21.1038 103.745 20.7478 103.758 20.3907V20.1451C103.747 19.7337 103.828 19.3251 103.996 18.9491C104.163 18.5731 104.413 18.2393 104.726 17.9721C104.997 17.685 105.324 17.4548 105.685 17.2951C106.047 17.1354 106.437 17.0493 106.832 17.0419C107.212 17.0733 107.588 17.1381 107.956 17.2354C108.301 17.4191 108.566 17.7239 108.7 18.0912H110.018L109.995 18.0614Z" fill="white"/>
</g>
</mask>
<g mask="url(#mask0_230_6924)">
<path d="M113.851 12.5918H98.1756V27.8402H113.851V12.5918Z" fill="#EDB400"/>
</g>
<mask id="mask2_230_6924" style="mask-type:luminance" maskUnits="userSpaceOnUse" x="92" y="22" width="3" height="3">
<mask id="mask3_230_6924" style="mask-type:luminance" maskUnits="userSpaceOnUse" x="2" y="2" width="120" height="28">
<path d="M121.309 2.49316H2.53067V29.4848H121.309V2.49316Z" fill="white"/>
</mask>
<g mask="url(#mask3_230_6924)">
<path d="M94.7591 23.5536L93.7468 22.5713L92.9207 23.5908L93.8511 24.3052L94.7591 23.5536Z" fill="white"/>
</g>
</mask>
<g mask="url(#mask2_230_6924)">
<path d="M98.6221 18.7163H89.0651V28.16H98.6221V18.7163Z" fill="#EDB400"/>
</g>
<mask id="mask4_230_6924" style="mask-type:luminance" maskUnits="userSpaceOnUse" x="95" y="16" width="7" height="9">
<mask id="mask5_230_6924" style="mask-type:luminance" maskUnits="userSpaceOnUse" x="2" y="2" width="120" height="28">
<path d="M121.309 2.49316H2.53067V29.4848H121.309V2.49316Z" fill="white"/>
</mask>
<g mask="url(#mask5_230_6924)">
<path d="M101.599 17.9348C101.587 17.7031 101.505 17.4804 101.365 17.2958C101.224 17.1113 101.031 16.9735 100.81 16.9004C100.257 16.6499 99.6542 16.5253 99.0464 16.5358C98.5693 16.5651 98.1092 16.7241 97.7157 16.9956C97.3222 17.267 97.0103 17.6406 96.8134 18.0762C96.2802 18.9338 95.999 19.9241 96.0021 20.9339C95.9655 21.3883 96.0893 21.8412 96.352 22.2139C96.8479 22.7828 97.4431 23.2569 98.1086 23.613C98.5276 23.8728 99.0018 24.0308 99.493 24.0744C99.5618 24.0874 99.6325 24.0874 99.7014 24.0744H99.8577C100.371 24.0744 100.721 23.6874 100.93 22.9283C100.988 22.7659 101.018 22.5948 101.019 22.4223L99.9842 22.1618V22.2288V22.4074C99.9734 22.5971 99.9384 22.7847 99.88 22.9655C99.8325 23.0989 99.7405 23.2119 99.6195 23.2855C99.3516 23.4195 98.9496 23.1069 98.4063 22.3553C97.8476 21.6618 97.5313 20.8045 97.5057 19.9144C97.5029 19.6625 97.5381 19.4116 97.6099 19.1702C97.7661 18.5942 98.1058 18.0848 98.5775 17.719C98.9843 17.4239 99.4741 17.265 99.9768 17.2651C100.185 17.399 100.289 17.5255 100.289 17.6297C100.289 17.7339 100.148 17.8604 99.9024 17.9274L99.5376 18.0018L99.9247 19.2446L100.781 18.8725C101.346 18.5599 101.622 18.2474 101.622 17.9274" fill="white"/>
</g>
</mask>
<g mask="url(#mask4_230_6924)">
<path d="M105.455 12.6812H92.1168V27.9295H105.455V12.6812Z" fill="#EDB400"/>
</g>
<mask id="mask6_230_6924" style="mask-type:luminance" maskUnits="userSpaceOnUse" x="110" y="16" width="11" height="8">
<mask id="mask7_230_6924" style="mask-type:luminance" maskUnits="userSpaceOnUse" x="2" y="2" width="120" height="28">
<path d="M121.309 2.49316H2.53067V29.4848H121.309V2.49316Z" fill="white"/>
</mask>
<g mask="url(#mask7_230_6924)">
<path d="M120.23 23.8957L119.53 23.0697V22.6455C119.595 21.1044 119.393 19.5638 118.935 18.0911C118.548 17.0343 118.004 16.5134 117.305 16.5134C116.978 16.527 116.66 16.6161 116.374 16.7739C116.114 16.8687 115.888 17.0399 115.727 17.265C115.644 17.0365 115.5 16.8354 115.31 16.6846C115.084 16.5565 114.825 16.497 114.565 16.5134C114.302 16.5206 114.045 16.5977 113.821 16.7367C113.485 16.9553 113.188 17.2296 112.943 17.5478L112.868 16.6697H110.501L111.156 17.2501L111.521 23.2929L110.926 23.8734L113.255 23.9255L112.764 23.226L112.868 18.9618L113.345 18.3367C113.626 17.9745 114.032 17.7303 114.484 17.652C114.625 17.652 114.848 18.5599 115.042 20.3832L115.347 23.1218L114.521 23.9255L117.357 23.8734L116.724 23.1292C116.724 22.9208 116.672 22.7274 116.657 22.5562C116.642 22.385 116.657 22.2362 116.657 22.1171C116.657 21.998 116.657 21.7301 116.657 21.172C116.657 20.6139 116.62 20.2046 116.62 19.9813C116.611 19.4119 116.641 18.8425 116.709 18.2771C116.776 17.8232 116.917 17.5776 117.059 17.5329C117.357 17.466 117.602 17.8976 117.803 18.865C117.893 19.2371 117.974 19.6092 118.049 20.1078C118.123 20.6064 118.168 21.0753 118.205 21.5962L118.309 23.0846L117.714 23.8287L120.23 23.8957Z" fill="white"/>
</g>
</mask>
<g mask="url(#mask6_230_6924)">
<path d="M124.085 12.6812H106.609V27.8105H124.085V12.6812Z" fill="#EDB400"/>
</g>
<mask id="mask8_230_6924" style="mask-type:luminance" maskUnits="userSpaceOnUse" x="20" y="9" width="19" height="15">
<mask id="mask9_230_6924" style="mask-type:luminance" maskUnits="userSpaceOnUse" x="2" y="2" width="120" height="28">
<path d="M121.309 2.49316H2.53067V29.4848H121.309V2.49316Z" fill="white"/>
</mask>
<g mask="url(#mask9_230_6924)">
<path d="M38.3026 23.7101L37.2159 22.832C37.0819 22.3185 36.8735 21.2022 36.6055 19.431L35.5486 12.5027C35.3816 11.9488 35.0801 11.4449 34.671 11.0359C34.2619 10.6269 33.7579 10.3254 33.204 10.1585C31.8757 9.63087 30.4577 9.36552 29.0284 9.37707C27.1694 9.35772 25.335 9.80281 23.6916 10.672C22.8754 11.0692 22.1588 11.6445 21.5946 12.3554C21.0303 13.0664 20.6329 13.8949 20.4315 14.7799C20.2975 15.3603 20.2305 15.7324 20.1933 15.9706C20.158 16.3092 20.1456 16.6498 20.1561 16.9901C20.1207 18.0682 20.3722 19.1365 20.8848 20.0857C21.3974 21.0349 22.1528 21.831 23.0738 22.3929C24.5099 23.3299 26.1897 23.8242 27.9045 23.8143C28.604 23.7885 29.2902 23.6146 29.9176 23.3042C30.545 22.9938 31.0994 22.5538 31.5442 22.0133C32.0596 21.5137 32.4715 20.9174 32.7563 20.2585C33.0411 19.5996 33.1933 18.8911 33.204 18.1733C33.2189 16.4481 32.6585 14.767 31.6112 13.3957C30.6882 12.205 29.8769 11.6617 29.1624 11.7287H28.686C27.7824 11.7028 26.9051 12.0344 26.2446 12.6515C25.83 12.9841 25.4851 13.3953 25.2297 13.8614C24.9742 14.3275 24.8133 14.8394 24.756 15.3678L24.6592 16.2533C24.6435 16.7619 24.7378 17.2679 24.9356 17.7367C25.1334 18.2055 25.4302 18.626 25.8055 18.9696C26.6157 19.7103 27.6858 20.1009 28.7828 20.0561C29.195 19.9134 29.5449 19.6319 29.7727 19.2599C29.9634 18.8712 30.0578 18.4424 30.0481 18.0096L29.9067 16.8189L29.6387 15.6282L27.8375 16.1715L28.0384 16.3799C28.2887 16.5806 28.4493 16.8722 28.485 17.191L28.3436 17.5333C28.0757 17.7343 27.6961 17.4589 27.2569 16.7147C26.8368 16.0797 26.6023 15.34 26.5796 14.5789C26.5796 13.8347 26.922 13.4924 27.5993 13.4924L28.2096 13.5594C28.6708 13.6897 29.0968 13.9218 29.4562 14.2386C29.8156 14.5555 30.0993 14.949 30.2863 15.3901C30.7781 16.3691 31.033 17.4499 31.0306 18.5454C31.0982 19.2968 30.9178 20.0495 30.517 20.6887C30.2135 21.0303 29.8261 21.2868 29.3931 21.4329C28.8672 21.6073 28.3171 21.6977 27.763 21.7008C26.6858 21.7338 25.6385 21.3438 24.8453 20.6143C23.9298 19.7659 23.4534 18.4413 23.4534 16.6403C23.4123 15.0819 23.9842 13.5696 25.0463 12.4282C25.592 11.8272 26.2364 11.3238 26.9517 10.9399C27.6311 10.6195 28.374 10.4567 29.1251 10.4636C29.9718 10.5089 30.8071 10.6795 31.6037 10.9696C32.0927 11.2419 32.5086 11.6284 32.8158 12.0962C33.123 12.5641 33.3124 13.0993 33.3678 13.6561L33.8144 18.5454L34.1195 22.8989L33.271 23.6431L38.3026 23.7101Z" fill="white"/>
</g>
</mask>
<g mask="url(#mask8_230_6924)">
<path d="M42.1582 5.52197H16.3006V27.6689H42.1582V5.52197Z" fill="#EDB400"/>
</g>
<mask id="mask10_230_6924" style="mask-type:luminance" maskUnits="userSpaceOnUse" x="61" y="9" width="16" height="15">
<mask id="mask11_230_6924" style="mask-type:luminance" maskUnits="userSpaceOnUse" x="2" y="2" width="120" height="28">
<path d="M121.309 2.49316H2.53067V29.4848H121.309V2.49316Z" fill="white"/>
</mask>
<g mask="url(#mask11_230_6924)">
<path d="M76.6127 12.3462C76.4771 11.8219 76.2157 11.3385 75.8513 10.9378C75.4869 10.5372 75.0303 10.2313 74.5211 10.0466C73.2322 9.45163 71.8244 9.15891 70.405 9.19083C68.4578 9.18349 66.5385 9.65366 64.8152 10.5601C63.9491 10.9573 63.1848 11.5463 62.58 12.2825C61.9752 13.0187 61.5458 13.8828 61.3244 14.8094C61.2295 15.1713 61.1599 15.5393 61.116 15.9108C61.0468 16.2586 61.0193 16.6133 61.0341 16.9676C61.0046 18.0766 61.2762 19.173 61.8201 20.14C62.364 21.1071 63.1599 21.9087 64.123 22.4597C65.6274 23.4238 67.3751 23.94 69.162 23.948C70.7381 23.9199 72.2558 23.3466 73.4568 22.3257C74.1197 21.8813 74.6678 21.286 75.0559 20.5887C75.4441 19.8915 75.6613 19.1121 75.6897 18.3146C75.7194 17.3251 75.5352 16.3409 75.1499 15.4291C74.7645 14.5172 74.187 13.6992 73.4568 13.0308C72.2584 11.9369 71.2238 11.4532 70.2636 11.5946H69.817C69.3519 11.5953 68.8916 11.6892 68.4634 11.8707C68.0351 12.0522 67.6476 12.3176 67.3236 12.6513C66.482 13.3659 65.9312 14.364 65.7754 15.4569L65.6712 16.3499C65.6633 16.8631 65.7741 17.3712 65.9949 17.8346C66.2156 18.298 66.5404 18.7042 66.944 19.0215C67.875 19.7646 69.0437 20.1453 70.2339 20.0932C70.632 19.9666 70.9722 19.7029 71.194 19.349C71.3746 18.9706 71.4638 18.5551 71.4545 18.136L71.2833 17.0718L70.9782 15.5313L69.162 16.1862L69.4002 16.3871C69.5781 16.6743 69.6614 17.0101 69.6384 17.3471C69.6384 17.4141 69.5714 17.4885 69.4672 17.5853C69.229 17.5853 68.9536 17.3471 68.5815 16.9378C68.2015 16.5502 67.8805 16.1089 67.6287 15.628C67.5305 15.4137 67.4845 15.179 67.4948 14.9434C67.492 14.7017 67.5427 14.4623 67.643 14.2423C67.7434 14.0224 67.891 13.8272 68.0753 13.6708C68.2419 13.5119 68.4457 13.3973 68.6681 13.3375C68.8905 13.2777 69.1243 13.2746 69.3481 13.3285C69.8756 13.4629 70.3641 13.7195 70.7739 14.0776C71.1838 14.4357 71.5037 14.8853 71.7076 15.3899C72.222 16.4086 72.4777 17.5383 72.4519 18.6792C72.468 19.234 72.3613 19.7854 72.1393 20.2941C71.8883 20.7939 71.4616 21.1835 70.941 21.388C70.2929 21.6684 69.5927 21.8079 68.8866 21.7973C67.7537 21.8405 66.6477 21.4461 65.7977 20.6959C64.8003 19.8104 64.4282 18.5378 64.3091 16.8932V16.4169C64.2832 15.6126 64.4391 14.8128 64.7651 14.0771C65.0911 13.3414 65.5789 12.6887 66.1922 12.1676C66.721 11.6059 67.3571 11.1558 68.0627 10.844C68.7684 10.5321 69.5294 10.3647 70.3008 10.3518C71.0558 10.4002 71.8039 10.5249 72.5338 10.7239C73.2415 11.0719 73.7937 11.6717 74.082 12.4057L76.6499 12.3387L76.6127 12.3462Z" fill="white"/>
</g>
</mask>
<g mask="url(#mask10_230_6924)">
<path d="M80.4682 5.33594H57.1934V27.788H80.4682V5.33594Z" fill="#EDB400"/>
</g>
<mask id="mask12_230_6924" style="mask-type:luminance" maskUnits="userSpaceOnUse" x="2" y="2" width="17" height="22">
<mask id="mask13_230_6924" style="mask-type:luminance" maskUnits="userSpaceOnUse" x="2" y="2" width="120" height="28">
<path d="M121.309 2.49316H2.53067V29.4848H121.309V2.49316Z" fill="white"/>
</mask>
<g mask="url(#mask13_230_6924)">
<path d="M16.0549 10.1954C16.2455 10.5928 16.4145 11.0002 16.5611 11.4158C16.6872 11.8061 16.7891 12.2037 16.8662 12.6065C16.9853 13.1767 17.0427 13.758 17.0374 14.3405C17.0431 15.2537 16.8458 16.1567 16.4596 16.9843C16.0734 17.8119 15.5081 18.5433 14.8045 19.1256C13.5805 20.1422 12.1733 20.9152 10.6586 21.4028C9.94207 21.6906 9.19168 21.8857 8.42567 21.9833L7.44317 4.59166H7.64414H8.2247C9.50753 4.52987 10.7825 4.82345 11.9091 5.44003C13.7957 6.50268 15.2595 8.18167 16.0549 10.1954ZM18.2879 7.61305C17.9157 6.32561 16.7993 5.30608 15.0278 4.48747C13.5583 3.81916 12.0103 3.33909 10.4204 3.05863C9.64498 2.89199 8.8592 2.77762 8.0684 2.71631H2.53067L3.81834 3.87724L2.73164 5.44003L3.72158 6.18422L2.73164 7.81398L3.92255 8.87073L2.66465 10.9098L4.05652 11.8549L3.11124 13.3954L4.36169 14.72L3.3122 16.6177L4.4659 17.4958L3.55039 18.9247L4.63709 19.6689L3.4834 20.9265L4.5701 21.9833L3.24522 23.7098H7.65902L7.93442 23.747H8.71595C10.07 23.7609 11.4197 23.5907 12.7278 23.241C14.322 22.8279 15.7462 21.9246 16.7992 20.6586C17.565 19.5831 18.0881 18.3542 18.3325 17.0568C18.6425 15.478 18.7995 13.8731 18.8015 12.2642C18.8458 10.6957 18.6627 9.12911 18.2581 7.61305" fill="white"/>
</g>
</mask>
<g mask="url(#mask12_230_6924)">
<path d="M22.6645 -1.13867H-1.32489V27.5944H22.6645V-1.13867Z" fill="#EDB400"/>
</g>
<mask id="mask14_230_6924" style="mask-type:luminance" maskUnits="userSpaceOnUse" x="40" y="4" width="5" height="4">
<mask id="mask15_230_6924" style="mask-type:luminance" maskUnits="userSpaceOnUse" x="2" y="2" width="120" height="28">
<path d="M121.309 2.49316H2.53067V29.4848H121.309V2.49316Z" fill="white"/>
</mask>
<g mask="url(#mask15_230_6924)">
<path d="M44.2944 6.18433L42.0465 4.34619L40.0815 6.28852L42.2177 7.78433L44.2944 6.18433Z" fill="white"/>
</g>
</mask>
<g mask="url(#mask14_230_6924)">
<path d="M48.1425 0.491211H36.2185V11.6317H48.1425V0.491211Z" fill="#EDB400"/>
</g>
<mask id="mask16_230_6924" style="mask-type:luminance" maskUnits="userSpaceOnUse" x="38" y="9" width="8" height="15">
<mask id="mask17_230_6924" style="mask-type:luminance" maskUnits="userSpaceOnUse" x="2" y="2" width="120" height="28">
<path d="M121.309 2.49316H2.53067V29.4848H121.309V2.49316Z" fill="white"/>
</mask>
<g mask="url(#mask17_230_6924)">
<path d="M45.2396 9.68213H39.4637L40.4834 11.2077L40.6919 22.5268L38.8534 23.71H44.6665L43.2077 22.4226L43.7808 11.0738L45.2396 9.68213Z" fill="white"/>
</g>
</mask>
<g mask="url(#mask16_230_6924)">
<path d="M49.0952 5.82715H34.9978V27.5648H49.0952V5.82715Z" fill="#EDB400"/>
</g>
<mask id="mask18_230_6924" style="mask-type:luminance" maskUnits="userSpaceOnUse" x="54" y="4" width="5" height="4">
<mask id="mask19_230_6924" style="mask-type:luminance" maskUnits="userSpaceOnUse" x="2" y="2" width="120" height="28">
<path d="M121.309 2.49316H2.53067V29.4848H121.309V2.49316Z" fill="white"/>
</mask>
<g mask="url(#mask19_230_6924)">
<path d="M58.3769 6.06519L56.129 4.22705L54.164 6.16938L56.3002 7.65775L58.3769 6.06519Z" fill="white"/>
</g>
</mask>
<g mask="url(#mask18_230_6924)">
<path d="M62.225 0.37207H50.301V11.5125H62.225V0.37207Z" fill="#EDB400"/>
</g>
<mask id="mask20_230_6924" style="mask-type:luminance" maskUnits="userSpaceOnUse" x="46" y="9" width="14" height="20">
<mask id="mask21_230_6924" style="mask-type:luminance" maskUnits="userSpaceOnUse" x="2" y="2" width="120" height="28">
<path d="M121.309 2.49316H2.53067V29.4848H121.309V2.49316Z" fill="white"/>
</mask>
<g mask="url(#mask21_230_6924)">
<path d="M59.8878 9.72656H53.4569L54.6627 10.9917C54.9456 11.3712 56.33 17.6894 56.5831 21.0828L56.6724 22.2512C56.6765 22.8947 56.5604 23.5332 56.33 24.134C56.1659 24.6336 55.9138 25.0998 55.5857 25.5107C55.1849 25.8763 54.715 26.1582 54.2037 26.3396C53.6924 26.5211 53.15 26.5986 52.6084 26.5675C52.0563 26.5789 51.5082 26.4724 51.0007 26.2549C50.797 26.1836 50.6105 26.0706 50.4529 25.9233C50.2953 25.776 50.1701 25.5975 50.0852 25.3991C49.9555 25.1079 49.8823 24.7948 49.8693 24.4763C49.8853 23.7802 50.1492 23.1125 50.6136 22.5935C50.7779 22.3565 50.9912 22.1574 51.239 22.0098C51.4868 21.8622 51.7634 21.7694 52.0502 21.7377L52.4223 21.8047C52.79 21.965 53.1293 22.1836 53.4271 22.4521C53.5725 22.5743 53.6657 22.7473 53.6877 22.9359C53.6877 23.2112 53.4271 23.4494 52.8838 23.6205L52.1023 23.814L53.055 25.6968L54.0003 24.9526C54.4794 24.5858 54.8076 24.0564 54.9232 23.4642C54.9285 22.6988 54.7818 21.94 54.4915 21.2317C54.3865 20.8987 54.2158 20.5902 53.9896 20.3244C53.7633 20.0585 53.486 19.8407 53.1741 19.6838C53.0682 19.6647 52.9599 19.6647 52.854 19.6838C52.1097 19.6838 50.9858 20.1601 49.4674 21.0828C47.7108 22.147 46.825 23.2782 46.825 24.4763C46.8315 24.7598 46.8895 25.0397 46.9962 25.3024C47.5694 26.5005 48.7454 27.4233 50.5243 28.108C51.8565 28.6836 53.2933 28.9775 54.7446 28.9712H55.3177C56.062 28.8373 56.9254 27.974 57.8782 26.3963C58.899 24.8904 59.4388 23.1103 59.4263 21.2912L58.5927 11.3712L59.8878 9.72656Z" fill="white"/>
</g>
</mask>
<g mask="url(#mask20_230_6924)">
<path d="M63.7434 5.87158H42.9397V32.8334H63.7434V5.87158Z" fill="#EDB400"/>
</g>
<mask id="mask22_230_6924" style="mask-type:luminance" maskUnits="userSpaceOnUse" x="78" y="2" width="15" height="22">
<mask id="mask23_230_6924" style="mask-type:luminance" maskUnits="userSpaceOnUse" x="2" y="2" width="120" height="28">
<path d="M121.756 2.23242H2.97726V29.2241H121.756V2.23242Z" fill="white"/>
</mask>
<g mask="url(#mask23_230_6924)">
<path d="M89.4968 12.9411C89.8069 13.6438 89.9593 14.4059 89.9434 15.1737C89.96 16.7304 89.5837 18.2661 88.8493 19.6388C88.0603 21.1272 87.1299 21.8714 86.1027 21.8714C85.5285 21.8614 84.9669 21.7017 84.4734 21.408C83.9799 21.1143 83.5717 20.6969 83.2892 20.197C82.4963 19.0892 82.098 17.7476 82.1578 16.3867L82.2323 15.4937C82.335 14.6815 82.62 13.9031 83.0659 13.2165C83.7324 12.4346 84.5469 11.7922 85.4626 11.3263L86.0134 11.0881C86.2386 11.0416 86.4682 11.0191 86.6982 11.0211C87.257 11.0091 87.8065 11.1646 88.2761 11.4677C88.8044 11.8447 89.2189 12.3595 89.4745 12.956M91.9456 13.2686C91.5385 12.3829 91.0396 11.5423 90.457 10.7607C90.0849 10.2641 89.6031 9.85999 89.0493 9.5799C88.4955 9.29981 87.8845 9.15125 87.2639 9.1458C86.2691 9.2073 85.3051 9.5141 84.4578 10.0388C83.6579 10.5074 82.9095 11.0586 82.2248 11.6835L82.463 3.73557L83.8102 2.45557H78.1906L79.188 3.85464L78.4437 4.88161L79.4039 6.08719L78.4437 7.11417L79.4039 8.14115L78.0641 9.54766L79.4039 10.7086L78.1683 12.0853L79.4708 13.1793L78.3767 14.5486L79.2699 15.8211L78.1683 17.2574L79.4039 18.9393L78.3767 20.6509L79.4039 22.1393L78.2055 23.6277H82.9022L81.808 21.0602C82.4049 21.7834 83.1226 22.3978 83.9293 22.876C84.6663 23.3577 85.5055 23.661 86.3802 23.7617C87.2549 23.8625 88.1411 23.758 88.9683 23.4565C89.7031 23.1683 90.3867 22.7638 90.9929 22.2584C91.6283 21.7575 92.0957 21.0747 92.3327 20.3011C92.4716 19.8893 92.5737 19.4659 92.6378 19.036C92.6751 18.6565 92.7048 18.143 92.7048 17.5477C92.7048 16.9523 92.7048 16.5877 92.6378 16.2081C92.6043 15.8375 92.5345 15.4711 92.4294 15.1142C92.3624 14.7644 92.2955 14.37 92.1912 14.0128C92.1289 13.7474 92.0494 13.4864 91.9531 13.2314" fill="white"/>
</g>
</mask>
<g mask="url(#mask22_230_6924)">
<path d="M96.5753 -1.40674H74.2234V27.6612H96.5753V-1.40674Z" fill="#EDB400"/>
</g>
</svg>
