<svg xmlns="http://www.w3.org/2000/svg" viewBox="0 0 102.33 24.42"><g id="レイヤー_2" data-name="レイヤー 2"><g id="レイヤー_1-2" data-name="レイヤー 1"><path d="M10.14,1.42V16a15.1,15.1,0,0,1-.37,3.91,5.82,5.82,0,0,1-1.24,2.47,5.66,5.66,0,0,1-4.54,2,7.65,7.65,0,0,1-4-1.11l1.67-2.92A4.21,4.21,0,0,0,4,21.23,2.15,2.15,0,0,0,6.1,20.07a9.32,9.32,0,0,0,.62-4V1.42Z"/><path d="M29.3,18.52H19.63L17.12,24H13.44L24.62,0,35.4,24H31.67Zm-1.39-3.2L24.56,7.64l-3.51,7.68Z"/><polygon points="51.3 4.62 43.43 4.62 43.43 12.46 51.03 12.46 51.03 15.67 43.43 15.67 43.43 24.01 40.02 24.01 40.02 1.42 51.3 1.42 51.3 4.62"/><path d="M73.75,2.63v4A9.44,9.44,0,0,0,67.63,4.2a7.79,7.79,0,0,0-5.87,2.5,8.44,8.44,0,0,0-2.4,6.09,8.24,8.24,0,0,0,2.4,6,8,8,0,0,0,5.88,2.44,7.23,7.23,0,0,0,3.06-.59,8.44,8.44,0,0,0,1.46-.79,17.47,17.47,0,0,0,1.59-1.2v4.11a12.27,12.27,0,0,1-6.15,1.66A11.37,11.37,0,0,1,59.33,21a11.21,11.21,0,0,1-3.4-8.22,11.61,11.61,0,0,1,2.85-7.7A11.36,11.36,0,0,1,67.86,1a11.6,11.6,0,0,1,5.89,1.65"/><path d="M78.72,12.61a11.05,11.05,0,0,1,3.49-8.19A11.54,11.54,0,0,1,90.58,1a11.3,11.3,0,0,1,8.28,3.46,11.28,11.28,0,0,1,3.47,8.29A11.11,11.11,0,0,1,98.85,21a11.94,11.94,0,0,1-16.3.38,11.11,11.11,0,0,1-3.83-8.78m3.44.05a8.13,8.13,0,0,0,2.51,6.15,8.33,8.33,0,0,0,11.78,0,8.32,8.32,0,0,0,2.44-6.06,8.26,8.26,0,0,0-2.41-6.05A8,8,0,0,0,90.54,4.2a8.06,8.06,0,0,0-6,2.46,8.18,8.18,0,0,0-2.42,6"/></g></g></svg>