<?xml version="1.0" encoding="UTF-8"?>
<svg id="_レイヤー_2" data-name="レイヤー 2" xmlns="http://www.w3.org/2000/svg" viewBox="0 0 94 58">
  <defs>
    <style>
      .cls-1 {
        fill: #231815;
      }

      .cls-1, .cls-2 {
        stroke-width: 0px;
      }

      .cls-2 {
        fill: #007da5;
      }
    </style>
  </defs>
  <g id="_レイヤー_1-2" data-name="レイヤー 1">
    <g>
      <g>
        <path class="cls-1" d="M55.17,22.76c-1.85-1.36-2.45-1.85-2.63-2.02-.46-.46-.78-.88-.95-1.26-.17-.37-.25-.76-.25-1.15,0-.64.22-1.16.68-1.6.46-.44,1.05-.65,1.79-.65.58,0,1.12.15,1.6.44.5.3,1.14.95,1.88,1.94l.22.29,2.26-1.71-.21-.29c-.97-1.32-1.92-2.25-2.81-2.75-1.75-.99-3.92-1.02-5.64-.09-.84.46-1.5,1.09-1.96,1.88-.46.79-.7,1.67-.7,2.63,0,1.2.39,2.34,1.17,3.36.45.61,1.52,1.56,3.29,2.89,1.68,1.26,2.84,2.34,3.46,3.22.42.6.64,1.21.64,1.82,0,.54-.14,1.06-.43,1.54-.28.48-.7.87-1.25,1.16-.55.29-1.15.44-1.78.44-1.47,0-2.8-1.08-3.96-3.21l-.18-.33-2.38,1.42.17.31c.89,1.61,1.88,2.78,2.94,3.48,1.08.7,2.29,1.06,3.61,1.06,1.72,0,3.2-.59,4.41-1.75,1.21-1.17,1.82-2.56,1.82-4.15,0-1.1-.36-2.21-1.06-3.29-.69-1.06-1.95-2.27-3.77-3.61Z"/>
        <polygon class="cls-1" points="74.28 13.73 64.17 35.04 67.28 35.04 74.75 19.32 82.19 35.04 85.22 35.04 75.25 13.73 74.28 13.73"/>
        <rect class="cls-1" x="91.21" y="13.73" width="2.79" height="21.31"/>
      </g>
      <g>
        <path class="cls-2" d="M30.11,34.85h-12.7c-6.75,0-12.23-5.47-12.23-12.19s5.49-12.19,12.23-12.19,12.23,5.47,12.23,12.19c0,4.08-2.03,7.7-5.14,9.91h7.19c1.97-2.81,3.13-6.22,3.13-9.91,0-9.58-7.79-17.34-17.41-17.34S0,13.09,0,22.67s7.79,17.34,17.41,17.34h17.87c0-2.85-2.32-5.15-5.17-5.15Z"/>
        <path class="cls-2" d="M35.84,5.15v7.1c2.82,0,5.11-2.25,5.17-5.04h0V0c-2.86,0-5.17,2.31-5.17,5.15Z"/>
      </g>
    </g>
    <g>
      <path class="cls-1" d="M33.28,54.07l-.22-1.5-2.71.34-.19-1.2,2.73-.35-.23-1.52,1.34-.16.22,1.51,2.51-.32.19,1.2-2.52.32.23,1.5,3.01-.38.19,1.19-3.02.39.39,2.71-1.35.21-.39-2.74-3.3.43-.21-1.21,3.33-.42Z"/>
      <path class="cls-1" d="M46.14,57.37h-6.17v-1.11h3.58l.34-2.78h-3.08v-1.11h4.43l-.46,3.9h1.36v1.11Z"/>
      <path class="cls-1" d="M56.23,53.16v1.36h-7.69v-1.36h7.69Z"/>
      <path class="cls-1" d="M59.83,51.43v-1.67h1.3v1.67h2.38v-1.69h1.33v1.69h1.59v1.21h-1.59v.66c0,2.15-.8,3.61-2.98,4.65l-.88-1.06c2.06-.88,2.53-1.98,2.53-3.55v-.71h-2.38v2.17h-1.3v-2.17h-1.59v-1.21h1.59Z"/>
      <path class="cls-1" d="M72.94,57.91h-1.41v-4.2c-.96.6-1.94,1.12-2.83,1.48l-.71-1.19c2.13-.67,5.2-2.79,6.36-4.26l1.06.83c-.62.7-1.49,1.47-2.47,2.19v5.15Z"/>
    </g>
  </g>
</svg>