<svg xmlns="http://www.w3.org/2000/svg" width="126.67" height="50.67" viewBox="0 0 126.67 50.67"><defs><style>.a{fill:#802062;}.b{fill:#231815;}</style></defs><title>logo</title><path class="a" d="M12.66,1.51a20.39,20.39,0,0,1,15.4,0H12.66"/><path class="a" d="M7.56,4.54A20.06,20.06,0,0,1,9.69,3H31a18.08,18.08,0,0,1,2.12,1.52H7.56"/><path class="a" d="M4.54,7.55C5,7,5.42,6.53,5.89,6h29c.48.49.93,1,1.36,1.51H4.54"/><path class="a" d="M2.51,10.57c.28-.51.59-1,.91-1.51H37.31c.32.49.64,1,.92,1.51H2.51"/><path class="a" d="M1.15,13.59c.18-.51.38-1,.6-1.5H39c.22.48.42,1,.6,1.5H1.15"/><path class="a" d="M.35,16.6c.09-.5.21-1,.34-1.5H40c.14.5.26,1,.35,1.5H.35"/><path class="a" d="M0,19.63c0-.51.06-1,.11-1.51h40.5a14.88,14.88,0,0,1,.12,1.51H0"/><path class="a" d="M.11,22.65c0-.5-.09-1-.11-1.51H40.73c0,.5,0,1-.12,1.51H.11"/><path class="a" d="M.69,25.67c-.13-.49-.25-1-.34-1.52h40A14.63,14.63,0,0,1,40,25.67H.69"/><path class="a" d="M1.75,28.69c-.22-.5-.42-1-.6-1.52H39.58c-.18.52-.38,1-.6,1.52H1.75"/><path class="a" d="M3.42,31.7c-.32-.48-.63-1-.92-1.51H38.23c-.28.52-.6,1-.92,1.51H3.42"/><path class="a" d="M5.89,34.72c-.48-.48-.93-1-1.35-1.5H36.2c-.43.51-.88,1-1.36,1.5H5.89"/><path class="a" d="M9.69,37.73a18.56,18.56,0,0,1-2.13-1.5h25.6A16.85,16.85,0,0,1,31,37.73H9.69"/><path class="a" d="M20.31,40.76a20.07,20.07,0,0,1-7.65-1.51H28.08a20.17,20.17,0,0,1-7.67,1.51h-.1"/><polyline class="a" points="20.36 40.76 20.31 40.76 20.41 40.76 20.36 40.76"/><path class="a" d="M103,1.51A20.49,20.49,0,0,1,110.69,0h16v1.5H103"/><path class="a" d="M97.9,4.54A21,21,0,0,1,100,3h26.62V4.54H97.9"/><path class="a" d="M94.87,7.55c.43-.52.89-1,1.35-1.51h30.42V7.55H94.87"/><path class="a" d="M92.84,10.57c.29-.51.59-1,.92-1.51h32.88v1.51H92.84"/><path class="a" d="M91.48,13.59c.18-.51.39-1,.6-1.5h34.56v1.5H91.48"/><path class="a" d="M90.67,16.6c.09-.5.21-1,.34-1.5h35.63v1.5h-36"/><path class="a" d="M90.33,19.63c0-.51.06-1,.12-1.51h36.19v1.51H90.33"/><path class="a" d="M90.45,22.65c-.06-.5-.1-1-.12-1.51h36.31v1.51H90.45"/><path class="a" d="M91,25.67c-.13-.49-.25-1-.34-1.52h36v1.52H91"/><path class="a" d="M92.07,28.69c-.21-.5-.41-1-.59-1.52h35.16v1.52H92.07"/><path class="a" d="M93.74,31.7c-.32-.48-.62-1-.91-1.51h33.81V31.7H93.74"/><path class="a" d="M96.21,34.72c-.47-.48-.92-1-1.36-1.5h31.79v1.5H96.21"/><path class="a" d="M100,37.73a17,17,0,0,1-2.13-1.5h28.75v1.5H100"/><path class="a" d="M111,40.76h-.57A20.19,20.19,0,0,1,103,39.25h23.66v1.51H111"/><path class="a" d="M110.41,40.76h0"/><polyline class="a" points="110.98 40.77 110.98 40.76 126.64 40.76 126.64 40.77 110.98 40.77"/><polyline class="a" points="46.12 1.51 46.12 0.01 65.52 0.01 65.52 1.51 46.12 1.51"/><path class="a" d="M66.6,1.51V0H77.37V0a9.87,9.87,0,0,1,4.49,1.47H66.6"/><path class="a" d="M66.6,4.54V3H83.71a10.42,10.42,0,0,1,1.2,1.52H66.6"/><polyline class="a" points="46.12 4.54 46.12 3.02 65.52 3.02 65.52 4.54 46.12 4.54"/><path class="a" d="M66.6,7.55V6H85.68a9.93,9.93,0,0,1,.51,1.51H66.6"/><polyline class="a" points="46.12 7.55 46.12 6.04 65.52 6.04 65.52 7.55 46.12 7.55"/><path class="a" d="M66.6,10.57V9.06H86.42c0,.25,0,.51,0,.76s0,.5,0,.75H66.6"/><polyline class="a" points="46.12 10.57 46.12 9.06 65.52 9.06 65.52 10.57 46.12 10.57"/><polyline class="a" points="46.12 13.6 46.12 12.09 65.52 12.09 65.52 13.6 46.12 13.6"/><path class="a" d="M66.6,13.59v-1.5H86.19a11,11,0,0,1-.5,1.5H66.6"/><path class="a" d="M66.6,16.6V15.1H84.91a10.27,10.27,0,0,1-1.18,1.5H66.6"/><polyline class="a" points="46.12 16.6 46.12 15.1 65.52 15.1 65.52 16.6 46.12 16.6"/><path class="a" d="M66.6,19.63V18.12H81.89a9.68,9.68,0,0,1-4.51,1.51H66.6"/><polyline class="a" points="46.12 19.63 46.12 18.12 65.52 18.12 65.52 19.63 46.12 19.63"/><polyline class="a" points="46.12 22.64 46.12 21.14 65.52 21.14 65.52 22.64 46.12 22.64"/><path class="a" d="M66.6,22.65V21.14H77.37a9.75,9.75,0,0,1,5,1.5H66.6"/><polyline class="a" points="46.12 25.68 46.12 24.15 65.52 24.15 65.52 25.68 46.12 25.68"/><path class="a" d="M66.6,25.67V24.15H84.22a9.6,9.6,0,0,1,1.19,1.52H66.6"/><path class="a" d="M66.6,28.69V27.17H86.21a8.7,8.7,0,0,1,.49,1.52H66.6"/><polyline class="a" points="46.12 28.69 46.12 27.17 65.52 27.17 65.52 28.69 46.12 28.69"/><path class="a" d="M66.6,31.7V30.19H86.92c0,.26,0,.5,0,.76s0,.51,0,.75H66.6"/><polyline class="a" points="46.12 31.7 46.12 30.19 65.52 30.19 65.52 31.7 46.12 31.7"/><polyline class="a" points="46.12 34.72 46.12 33.22 65.52 33.22 65.52 34.72 46.12 34.72"/><path class="a" d="M66.6,34.72v-1.5H86.7a9.74,9.74,0,0,1-.49,1.5H66.6"/><path class="a" d="M66.6,37.73v-1.5H85.41a8.27,8.27,0,0,1-1.19,1.5H66.6"/><polyline class="a" points="46.12 37.73 46.12 36.23 65.52 36.23 65.52 37.73 46.12 37.73"/><path class="a" d="M66.6,40.76V39.25H82.37a9.81,9.81,0,0,1-5,1.5H66.6"/><polyline class="a" points="46.12 40.76 46.12 39.25 65.52 39.25 65.52 40.76 46.12 40.76"/><polyline class="a" points="46.12 40.76 65.52 40.76 46.12 40.76"/><polyline class="a" points="66.6 40.76 77.37 40.76 66.6 40.76"/><path class="b" d="M14.92,44.5l.12.61a3,3,0,0,0-3-.25,2.51,2.51,0,0,0-1,2.61,2.64,2.64,0,0,0,1.81,2,3.32,3.32,0,0,0,2.33-.55l-.3.61a3.67,3.67,0,0,1-2.89,0,2.79,2.79,0,0,1-1.51-2.7,2.83,2.83,0,0,1,1.17-2.09,4,4,0,0,1,3.29-.24Z"/><path class="b" d="M10.44,44.34a1,1,0,0,0-.38.78,33,33,0,0,0,0,4c.06.29.36.37.56.43l-.22.2a4.08,4.08,0,0,0-1.34-.06,1.35,1.35,0,0,0,.46-.85,30.9,30.9,0,0,0,0-4,.57.57,0,0,0-.4-.33c.16-.39.61-.06.84-.17s.32,0,.5,0Z"/><path class="b" d="M29.09,44.54l.16.58a2.43,2.43,0,0,0-2-.27,1,1,0,0,0-.6.65.71.71,0,0,0,.22.65c1,.72,3.15.81,2.63,2.6A2.11,2.11,0,0,1,27.72,50a4.06,4.06,0,0,1-1.48-.14c0-.22-.2-.38-.22-.6a2.51,2.51,0,0,0,2.58,0,1,1,0,0,0,.4-1.09c-.43-1-1.54-1-2.32-1.45a1.17,1.17,0,0,1-.5-1.28,1.71,1.71,0,0,1,1.6-1,4.1,4.1,0,0,1,1.31.16Z"/><path class="b" d="M43.54,44.58a4.58,4.58,0,0,1,.14.56,2.38,2.38,0,0,0-2.11-.22c-.26.2-.52.44-.48.78.1.78,1,.82,1.52,1.13s1.31.63,1.39,1.3a1.52,1.52,0,0,1-.62,1.42,3.31,3.31,0,0,1-2.69.3l-.24-.58c.78.34,2,.64,2.72-.08a1.05,1.05,0,0,0,.29-.92c-.29-1-1.45-1-2.21-1.45a1.28,1.28,0,0,1-.68-1.1,1.38,1.38,0,0,1,.82-1.1,3.3,3.3,0,0,1,2.15,0Z"/><path class="b" d="M105.07,44.69c0,.19.11.37.1.57a3,3,0,0,0-3-.14,2.41,2.41,0,0,0-1,2.53,2.59,2.59,0,0,0,1.27,1.84,3,3,0,0,0,2.87-.4c0,.2-.21.4-.29.59a3.46,3.46,0,0,1-3,0,2.56,2.56,0,0,1-1.41-2.45A2.7,2.7,0,0,1,101.71,45a3.83,3.83,0,0,1,3.36-.29Z"/><path class="b" d="M47.07,44.6l.14.56c-.64-.31-1.65-.62-2.29-.07a.82.82,0,0,0-.29.67c0,.58.68.7,1.08.89.63.31,1.41.44,1.74,1.19a1.4,1.4,0,0,1-.3,1.53,2.91,2.91,0,0,1-2.91.51c-.05-.21-.22-.38-.24-.59a2.61,2.61,0,0,0,2.51.08,1.1,1.1,0,0,0,.49-1.2c-.47-.92-1.56-.9-2.3-1.39a1.17,1.17,0,0,1-.56-.82,1.24,1.24,0,0,1,.64-1.24,3.17,3.17,0,0,1,2.29-.12Z"/><path class="b" d="M54.15,44.7l.07.6A2.87,2.87,0,0,0,51.36,45a2.39,2.39,0,0,0-1.12,2.51,2.56,2.56,0,0,0,1.67,2.13,3.39,3.39,0,0,0,2.48-.53l-.32.59a3.39,3.39,0,0,1-3.13-.1,2.84,2.84,0,0,1,.65-5,4.64,4.64,0,0,1,2.56.1Z"/><path class="b" d="M22.28,44.49c-.35.21-.35.6-.38.93a17.49,17.49,0,0,0,0,3.07A1.49,1.49,0,0,0,23,49.61a1.92,1.92,0,0,0,1.63-.37c.87-.93.65-2.33.69-3.58a.94.94,0,0,0-.45-.92l-.08,0c.11-.38.61-.08.91-.2l.39,0a1.25,1.25,0,0,0-.41.94c-.15,1.6.3,3.73-1.51,4.38a2.47,2.47,0,0,1-2.31-.48c-.62-.57-.48-1.47-.48-2.27a8.57,8.57,0,0,0,0-2.15.6.6,0,0,0-.44-.23c.18-.42.66-.07,1-.19Z"/><path class="b" d="M95.32,44.52c-.21.76-.91.08-1.41.24-.24.06-.58,0-.68.28a27.66,27.66,0,0,0,0,4.27.63.63,0,0,0,.32.36,3.11,3.11,0,0,1,.33,0c-.3.52-.85,0-1.32.17l-.33,0a1.41,1.41,0,0,0,.46-.74c.06-1.33.06-2.76,0-4a.53.53,0,0,0-.28-.32,3.77,3.77,0,0,0-1.71.19,2,2,0,0,1,.24-.49c1-.11,2,.12,3,0a9.73,9.73,0,0,1,1.43,0Z"/><path class="b" d="M30.72,44.5a1.48,1.48,0,0,0-.4,1.16V49a.67.67,0,0,0,.35.64l.26.07c-.22.44-.78,0-1.2.12l-.34,0a1.36,1.36,0,0,0,.44-.88,33.45,33.45,0,0,0,0-4,.66.66,0,0,0-.36-.28c.06-.43.56,0,.86-.2Z"/><path class="b" d="M32.16,44.5c.6,1.7,2.57,2.79,3.41,4.37l0,0A22.66,22.66,0,0,0,35.49,45a.56.56,0,0,0-.42-.25c.1-.41.58-.08.9-.18l.38,0a1.37,1.37,0,0,0-.42,1.1v4.14c-.14,0-.26.36-.38.11-.66-1.72-2.43-2.91-3.51-4.45l0,0,0,3.65a.66.66,0,0,0,.34.52.79.79,0,0,1,.3.08c-.22.43-.76.06-1.14.12l-.39.06a1.47,1.47,0,0,0,.52-1.08l0-3.23c0-.28,0-.62-.29-.76l-.17-.06c.13-.44.68-.08,1-.22Z"/><path class="b" d="M39.83,44.5c0,.12-.11.24-.17.36a6.1,6.1,0,0,0-2.09,0,4.28,4.28,0,0,0-.21,1.88l0,.06c.6,0,1.22,0,1.82,0l-.19.31c-.53,0-1.07,0-1.6,0a12.06,12.06,0,0,0,0,2.08.56.56,0,0,0,.3.4,5,5,0,0,0,2.59-.2A3.66,3.66,0,0,1,40,50c-1.2.1-2.38-.18-3.53-.06a1.48,1.48,0,0,0,.47-1.14V45.19a.61.61,0,0,0-.35-.45l-.1-.08.15-.16c1.07.12,2.15,0,3.22,0Z"/><path class="b" d="M67.6,44.69a1.6,1.6,0,0,1,.16.55,2.26,2.26,0,0,0-2.27-.1.82.82,0,0,0-.32.6.69.69,0,0,0,.3.62c.88.69,2.69.6,2.61,2.19a1.62,1.62,0,0,1-.9,1.26,3.77,3.77,0,0,1-2.33.17,1.49,1.49,0,0,1-.32-.64,2.55,2.55,0,0,0,2.61,0,1.07,1.07,0,0,0,.4-.85,1.06,1.06,0,0,0-.56-.87c-.76-.52-2.09-.5-2.33-1.67a1.38,1.38,0,0,1,.78-1.26,3.17,3.17,0,0,1,2.17,0Z"/><path class="b" d="M120.25,44.54c.14-.08.3,0,.44,0-.16.58-.68.22-1.06.29s-.88-.15-1.07.21a29.36,29.36,0,0,0,0,4.09.65.65,0,0,0,.38.52,2.69,2.69,0,0,0,.32,0c-.07.11-.12.21-.23.25a4.3,4.3,0,0,0-1.43,0c.72-.57.42-1.64.47-2.45V45.24a.56.56,0,0,0-.29-.38A3.36,3.36,0,0,0,116,45c.13-.18.1-.62.47-.52,1.23.06,2.51,0,3.77,0Z"/><path class="b" d="M64.69,44.56a1.23,1.23,0,0,0-.4.92v4.33c-.14,0-.3.31-.4.1-.66-1.7-2.49-2.94-3.55-4.49l0,.06v3.83a.53.53,0,0,0,.35.39l.28.06L60.7,50A4.21,4.21,0,0,0,59.47,50c.78-.74.36-2.16.5-3.23-.1-.66.25-1.56-.39-1.91h0c.08-.44.61-.09.91-.25C61.1,46.28,63.07,47.41,64,49c.08-1.18,0-2.45,0-3.63,0-.24-.1-.51-.36-.58l-.16,0c.12-.37.5-.08.76-.14l.5,0Z"/><path class="b" d="M80.47,44.58c-.22.78-.91.08-1.41.27a.89.89,0,0,0-.64.16l-.1.21,0,3.69c0,.3,0,.64.34.79l.38.11c-.08.07-.12.23-.26.22A4,4,0,0,0,77.36,50a1.5,1.5,0,0,0,.49-1.09V45.46c0-.22-.07-.48-.3-.56a3.48,3.48,0,0,0-1.76.16L76,44.6c.79-.1,1.66.06,2.51,0a10.39,10.39,0,0,1,1.93,0Z"/><path class="b" d="M114.91,44.56a1,1,0,0,0-.4.74c-.06,1.34,0,2.55,0,3.89,0,.18.14.42.36.45a4.23,4.23,0,0,0,2-.23c0,.18-.22.33-.28.52-1,.16-2-.08-3,0a1.41,1.41,0,0,0,.45-1.11,24,24,0,0,0-.08-3.8.48.48,0,0,0-.35-.24l.16-.22a11.81,11.81,0,0,0,1.19,0Z"/><path class="b" d="M74.45,44.58a1,1,0,0,0-.4.8c0,1.27,0,2.61,0,3.91a.56.56,0,0,0,.29.38,4.93,4.93,0,0,0,2.07-.18A1,1,0,0,1,76,50c-1,0-1.92-.15-2.93-.08a1.41,1.41,0,0,0,.49-1.16l0-3.29c-.06-.26,0-.56-.32-.68l-.16,0c.14-.44.58-.06.9-.18a1.66,1.66,0,0,1,.45,0Z"/><path class="b" d="M5.11,45.58a2.74,2.74,0,0,0-1.85-1.31A2.72,2.72,0,0,0,.39,45.48a2.89,2.89,0,0,0-.12,2.67,2.84,2.84,0,0,0,2.41,1.58,2.78,2.78,0,0,0,2.41-1.3,2.8,2.8,0,0,0,0-2.85ZM4.77,48a2.07,2.07,0,0,1-1.41,1.29,2.19,2.19,0,0,1-2.17-.68,2.83,2.83,0,0,1-.46-2.69,2,2,0,0,1,1.64-1.36,2.28,2.28,0,0,1,1.87.66A2.81,2.81,0,0,1,4.77,48Z"/><path class="b" d="M73,44.58a1.24,1.24,0,0,0-.38.94c-.16,1.63.32,3.82-1.59,4.45a2.31,2.31,0,0,1-2.41-.7A2.63,2.63,0,0,1,68.35,48a19.64,19.64,0,0,0,0-2.87.53.53,0,0,0-.45-.31L68,44.6a8.15,8.15,0,0,0,1.21,0,1.22,1.22,0,0,0-.37,1,17,17,0,0,0,0,3.19,1.46,1.46,0,0,0,1.16,1,1.92,1.92,0,0,0,1.58-.4c.85-1,.59-2.4.66-3.62,0-.34-.09-.71-.42-.86-.07,0-.18,0-.1-.12s.39,0,.61-.1.42-.08.64-.06Z"/><path class="b" d="M90.64,44.6a1.37,1.37,0,0,0-.38,1.12v4.09L90,50a13.4,13.4,0,0,0-1.37-2c-.3-.36-.66-.66-.92-1l-.1,0a14.07,14.07,0,0,1-1.28-1.48c0,1.28-.09,2.59,0,3.86a.43.43,0,0,0,.29.36l.31.09c-.09.3-.39.18-.62.18a2.75,2.75,0,0,0-.86,0,1.55,1.55,0,0,0,.5-1.1l0-3.47a.58.58,0,0,0-.33-.54l-.13,0,.16-.22.82,0c.61,1.69,2.6,2.79,3.46,4.39l0,0,0-3.55c0-.22,0-.47-.3-.58l-.22,0,.16-.21a4.5,4.5,0,0,0,1.1,0Z"/><path class="b" d="M125.67,45.91c-.65-1.54-2.41-1.64-3.85-1.41-.35.12-.83-.18-1,.2a.51.51,0,0,1,.42.34,34.61,34.61,0,0,1,0,4,1.34,1.34,0,0,1-.48.86l.22,0c1.57.11,3.38.36,4.39-1.11a3.12,3.12,0,0,0,.31-2.8ZM125,48.52a2.52,2.52,0,0,1-2.64,1c-.23,0-.52-.15-.57-.41a31.29,31.29,0,0,1-.05-3.75.57.57,0,0,1,.3-.55,2.6,2.6,0,0,1,3,.95,2.85,2.85,0,0,1,0,2.72Z"/><path class="b" d="M59.39,45.82a2.84,2.84,0,0,0-1.7-1.26,2.78,2.78,0,0,0-2,5.14,2.51,2.51,0,0,0,1.37.39,2.82,2.82,0,0,0,2.38-1.46,3,3,0,0,0-.06-2.81Zm-.34,2.59a2.13,2.13,0,0,1-1.8,1.32A2.2,2.2,0,0,1,55.48,49a2.86,2.86,0,0,1-.38-3.07,2.15,2.15,0,0,1,3.49-.36,2.91,2.91,0,0,1,.46,2.83Z"/><path class="b" d="M110.5,46a2.79,2.79,0,0,0-1.77-1.42,2.86,2.86,0,0,0-2.69.78,2.74,2.74,0,0,0-.6,2.85A2.84,2.84,0,0,0,107.61,50a2.89,2.89,0,0,0,2.77-1.25A2.79,2.79,0,0,0,110.5,46Zm-.69,2.87a2.31,2.31,0,0,1-2.18.8,2.4,2.4,0,0,1-1.71-1.82,2.44,2.44,0,0,1,.76-2.51,2.17,2.17,0,0,1,1.87-.4A2.34,2.34,0,0,1,110,46.17a2.79,2.79,0,0,1-.18,2.7Z"/><path class="b" d="M84.94,49.7a.74.74,0,0,1-.41-.6,29.1,29.1,0,0,0-2.19-4.58l-.12-.1-.23.2c-.8,1.62-1.68,3.19-2.35,4.85l-.42.41A5.79,5.79,0,0,1,80.6,50l.24-.24-.22,0a.49.49,0,0,1-.33-.31,3.49,3.49,0,0,1,.58-1.81c.82,0,1.68,0,2.51,0l.06.05c.22.7.94,1.6.22,2.3l.32,0c.4-.09.9.36,1.15-.14l-.19,0ZM81,47.23a12.72,12.72,0,0,1,1.06-2,10.7,10.7,0,0,1,1.13,2,13.34,13.34,0,0,1-2.19,0Z"/><path class="b" d="M9.18,47.63a2,2,0,0,0-1.44-1.09,1.49,1.49,0,0,0,1-.94,1.24,1.24,0,0,0-.23-.94c-.56-.69-1.63-.5-2.39-.38-.28.09-.72-.28-.82.16l.1,0a.6.6,0,0,1,.37.52v3.61a1.13,1.13,0,0,1-.45.94c1.1-.2,2.58.56,3.51-.36a1.57,1.57,0,0,0,.34-1.54ZM6.35,44.7a1.41,1.41,0,0,1,1.28-.2.88.88,0,0,1,.54.51,1,1,0,0,1-.07.93c-.42.58-1.17.47-1.81.44a5.24,5.24,0,0,1,.06-1.68Zm2.27,4a1.68,1.68,0,0,1-1.83.62c-.2-.07-.44-.18-.48-.4a18.43,18.43,0,0,1-.06-2.12,2.51,2.51,0,0,1,1.16-.06,1.78,1.78,0,0,1,1.05.59,1.31,1.31,0,0,1,.16,1.37Z"/><path class="b" d="M20.84,47.43a2.3,2.3,0,0,0-1.33-.85,1.64,1.64,0,0,0,.77-.46,1.14,1.14,0,0,0,.15-1.2c-.51-1-1.62-.72-2.52-.6-.32.12-.72-.29-.84.17h.14a.63.63,0,0,1,.31.44v3.73a1.27,1.27,0,0,1-.43,1c.89-.14,1.71.18,2.61.07a1.56,1.56,0,0,0,1.25-1,1.76,1.76,0,0,0-.12-1.24Zm-2.71-2.69a1.41,1.41,0,0,1,1.38-.16l.28.24a1.09,1.09,0,0,1,.13,1.09c-.37.68-1.19.57-1.87.55a5,5,0,0,1,.08-1.72ZM20.19,49a1.85,1.85,0,0,1-1.78.3c-.56-.2-.34-.88-.4-1.36V46.83a2.82,2.82,0,0,1,1.26,0,1.58,1.58,0,0,1,1.18.91,1.32,1.32,0,0,1-.26,1.3Z"/><path class="b" d="M112.38,49.49a1.2,1.2,0,0,1-.43,1.18,1.36,1.36,0,0,0,.09-1c.06-.1.22-.1.34-.14Z"/><path class="b" d="M111.09,50.21a.33.33,0,1,0,0-.65.33.33,0,1,0,0,.65Z"/><path class="b" d="M126.34,50.21a.33.33,0,1,0,0-.65.33.33,0,1,0,0,.65Z"/><path class="b" d="M98,44.73a1.92,1.92,0,0,1,.15.56,2.28,2.28,0,0,0-2.27-.1.82.82,0,0,0-.32.6.65.65,0,0,0,.3.61c.88.71,2.69.6,2.61,2.2a1.59,1.59,0,0,1-.89,1.26A3.8,3.8,0,0,1,95.2,50a1.59,1.59,0,0,1-.32-.65,2.52,2.52,0,0,0,2.62,0,1.06,1.06,0,0,0,.4-.83,1.07,1.07,0,0,0-.57-.88c-.76-.52-2.09-.49-2.33-1.67a1.36,1.36,0,0,1,.79-1.26,3.17,3.17,0,0,1,2.17,0Z"/></svg>