<?xml version="1.0" encoding="UTF-8" standalone="no"?>
<!-- Created with Inkscape (http://www.inkscape.org/) -->

<svg
   xmlns:dc="http://purl.org/dc/elements/1.1/"
   xmlns:cc="http://creativecommons.org/ns#"
   xmlns:rdf="http://www.w3.org/1999/02/22-rdf-syntax-ns#"
   xmlns:svg="http://www.w3.org/2000/svg"
   xmlns="http://www.w3.org/2000/svg"
   xmlns:sodipodi="http://sodipodi.sourceforge.net/DTD/sodipodi-0.dtd"
   xmlns:inkscape="http://www.inkscape.org/namespaces/inkscape"
   width="208.13858"
   height="56.202221"
   viewBox="0 0 55.069999 14.870171"
   version="1.1"
   id="svg12948"
   inkscape:version="0.92.0 r15299"
   sodipodi:docname="sbi holdings.svg">
  <defs
     id="defs12942">
    <clipPath
       id="clipPath5945"
       clipPathUnits="userSpaceOnUse">
      <path
         inkscape:connector-curvature="0"
         id="path5943"
         d="M 0,0 H 612 V 792 H 0 Z" />
    </clipPath>
    <clipPath
       id="clipPath5929"
       clipPathUnits="userSpaceOnUse">
      <path
         inkscape:connector-curvature="0"
         id="path5927"
         d="M 0,0 H 612 V 792 H 0 Z" />
    </clipPath>
    <clipPath
       id="clipPath5913"
       clipPathUnits="userSpaceOnUse">
      <path
         inkscape:connector-curvature="0"
         id="path5911"
         d="M 0,0 H 612 V 792 H 0 Z" />
    </clipPath>
    <clipPath
       id="clipPath5893"
       clipPathUnits="userSpaceOnUse">
      <path
         inkscape:connector-curvature="0"
         id="path5891"
         d="M 0,0 H 612 V 792 H 0 Z" />
    </clipPath>
  </defs>
  <sodipodi:namedview
     id="base"
     pagecolor="#ffffff"
     bordercolor="#666666"
     borderopacity="1.0"
     inkscape:pageopacity="0.0"
     inkscape:pageshadow="2"
     inkscape:zoom="3.8718042"
     inkscape:cx="103.56929"
     inkscape:cy="27.601109"
     inkscape:document-units="mm"
     inkscape:current-layer="layer1"
     showgrid="false"
     fit-margin-top="0"
     fit-margin-left="0"
     fit-margin-right="0"
     fit-margin-bottom="0"
     units="px"
     inkscape:window-width="1280"
     inkscape:window-height="744"
     inkscape:window-x="-4"
     inkscape:window-y="-4"
     inkscape:window-maximized="1" />
  <metadata
     id="metadata12945">
    <rdf:RDF>
      <cc:Work
         rdf:about="">
        <dc:format>image/svg+xml</dc:format>
        <dc:type
           rdf:resource="http://purl.org/dc/dcmitype/StillImage" />
        <dc:title></dc:title>
      </cc:Work>
    </rdf:RDF>
  </metadata>
  <g
     inkscape:label="Layer 1"
     inkscape:groupmode="layer"
     id="layer1"
     transform="translate(-150.2461,-215.3493)">
    <g
       id="g18945"
       transform="translate(0.1322902,-0.13228488)">
      <g
         transform="matrix(0.35277777,0,0,-0.35277777,155.14725,225.96295)"
         id="g5879">
        <path
           inkscape:connector-curvature="0"
           id="path5881"
           style="fill:#0058a1;fill-opacity:1;fill-rule:nonzero;stroke:none"
           d="m 0,0 c -0.461,-2.528 0.832,-3.339 3.078,-3.339 1.593,0 3.377,0.603 3.737,2.197 C 7.243,0.75 4.429,1.113 1.698,1.988 -1,2.857 -3.727,4.241 -2.832,8.183 c 1.065,4.691 5.938,6.529 9.744,6.529 4.036,0 7.627,-2.077 6.558,-6.923 H 8.186 c 0.529,1.956 -1.062,2.59 -2.679,2.59 -1.138,0 -2.653,-0.421 -2.974,-1.836 -0.374,-1.655 2.483,-1.957 5.24,-2.831 2.729,-0.87 5.352,-2.312 4.475,-6.193 -1.235,-5.442 -6.005,-7.19 -10.464,-7.19 -4.66,0 -8.287,2.166 -7.069,7.671 z" />
      </g>
      <path
         d="m 168.04325,220.93283 h 1.86373 l -1.71768,7.57661 h -1.86443 z"
         style="fill:#0058a1;fill-opacity:1;fill-rule:nonzero;stroke:none;stroke-width:0.35277778"
         id="path5885"
         inkscape:connector-curvature="0" />
      <g
         transform="matrix(0.35277777,0,0,-0.35277777,161.75478,226.92826)"
         id="g5895">
        <path
           inkscape:connector-curvature="0"
           id="path5897"
           style="fill:#0058a1;fill-opacity:1;fill-rule:nonzero;stroke:none"
           d="M 0,0 H 4.234 C 5.91,0 7.216,0.633 7.62,2.406 8.05,4.301 6.943,4.933 5.351,4.933 H 1.117 Z m 1.937,8.541 h 4.09 c 0.909,0 2.275,0.514 2.621,2.047 0.359,1.563 -0.579,2.076 -1.685,2.076 H 2.871 Z m -3.366,8.454 h 9.485 c 3.508,0.058 7.126,-0.902 6.109,-5.385 C 13.729,9.686 12.295,8.119 10.513,7.279 12.525,6.618 13.408,4.629 12.855,2.195 11.697,-2.921 7.793,-4.482 3.446,-4.482 h -9.742 z" />
      </g>
      <g
         transform="matrix(0.35277777,0,0,-0.35277777,172.51026,217.889)"
         id="g5899">
        <path
           inkscape:connector-curvature="0"
           id="path5901"
           style="fill:#e7242e;fill-opacity:1;fill-rule:nonzero;stroke:none"
           d="m 0,0 c -2.92,7.755 -19.633,8.641 -37.32,1.979 -12.615,-4.753 -22.318,-12.062 -25.791,-18.679 4.8,5.015 12.553,9.94 21.906,13.467 17.69,6.665 34.401,5.777 37.322,-1.981 0.84,-2.224 0.45,-4.773 -0.946,-7.436 C -0.554,-8.185 1.377,-3.655 0,0" />
      </g>
      <path
         d="m 173.96015,228.49935 1.13629,-5.84553 h 0.77012 l -0.46567,2.39537 h 3.04165 l 0.46532,-2.39537 h 0.7694 l -1.13559,5.84553 h -0.77011 l 0.53551,-2.75625 h -3.04129 l -0.53623,2.75625 z"
         style="fill:#7d7d7d;fill-opacity:1;fill-rule:nonzero;stroke:none;stroke-width:0.35277778"
         id="path5905"
         inkscape:connector-curvature="0" />
      <g
         transform="matrix(0.35277777,0,0,-0.35277777,180.46664,226.37778)"
         id="g5915">
        <path
           inkscape:connector-curvature="0"
           id="path5917"
           style="fill:#7d7d7d;fill-opacity:1;fill-rule:nonzero;stroke:none"
           d="m 0,0 c -0.301,-1.541 -0.191,-2.696 0.327,-3.463 0.519,-0.767 1.284,-1.149 2.297,-1.149 1.005,0 1.917,0.384 2.734,1.155 0.818,0.771 1.38,1.945 1.686,3.525 C 7.335,1.556 7.216,2.683 6.695,3.451 6.173,4.218 5.412,4.602 4.416,4.602 3.403,4.602 2.489,4.22 1.672,3.457 0.858,2.695 0.3,1.541 0,0 m -2.103,-0.005 c 0.433,2.224 1.369,3.872 2.813,4.942 1.204,0.89 2.547,1.335 4.03,1.335 1.648,0 2.891,-0.54 3.727,-1.623 C 9.303,3.567 9.536,2.073 9.166,0.164 8.865,-1.382 8.397,-2.598 7.762,-3.484 7.127,-4.37 6.32,-5.058 5.339,-5.548 4.359,-6.037 3.346,-6.283 2.3,-6.283 c -1.679,0 -2.931,0.54 -3.756,1.617 -0.826,1.078 -1.042,2.632 -0.647,4.661" />
      </g>
      <path
         d="m 184.10046,228.49935 1.13595,-5.84553 h 0.72213 l -1.13559,5.84553 z"
         style="fill:#7d7d7d;fill-opacity:1;fill-rule:nonzero;stroke:none;stroke-width:0.35277778"
         id="path5921"
         inkscape:connector-curvature="0" />
      <g
         transform="matrix(0.35277777,0,0,-0.35277777,186.65676,226.38166)"
         id="g5931">
        <path
           inkscape:connector-curvature="0"
           id="path5933"
           style="fill:#7d7d7d;fill-opacity:1;fill-rule:nonzero;stroke:none"
           d="m 0,0 c -0.301,-1.541 -0.2,-2.694 0.3,-3.457 0.501,-0.763 1.191,-1.144 2.073,-1.144 0.889,0 1.715,0.364 2.478,1.093 0.764,0.729 1.291,1.841 1.582,3.339 C 6.753,1.477 6.671,2.686 6.189,3.457 5.706,4.227 5,4.613 4.074,4.613 3.168,4.613 2.341,4.242 1.591,3.501 0.84,2.761 0.31,1.594 0,0 m 5.246,-6.003 0.295,1.515 C 4.548,-5.678 3.315,-6.272 1.84,-6.272 c -0.956,0 -1.784,0.264 -2.484,0.792 -0.698,0.527 -1.175,1.265 -1.431,2.212 -0.257,0.946 -0.266,2.032 -0.027,3.262 0.232,1.199 0.644,2.287 1.23,3.263 0.588,0.977 1.33,1.726 2.227,2.246 0.896,0.52 1.835,0.78 2.819,0.78 0.72,0 1.333,-0.152 1.837,-0.454 C 6.515,5.526 6.896,5.132 7.154,4.646 l 1.15,5.921 h 2.048 l -3.22,-16.57 z" />
      </g>
      <path
         d="m 191.28782,223.471 0.1591,-0.81703 h 0.72249 l -0.15911,0.81703 z m -0.97685,5.02849 0.82374,-4.23933 h 0.72249 l -0.82409,4.23933 z"
         style="fill:#7d7d7d;fill-opacity:1;fill-rule:nonzero;stroke:none;stroke-width:0.35277778"
         id="path5937"
         inkscape:connector-curvature="0" />
      <g
         transform="matrix(0.35277777,0,0,-0.35277777,192.28826,228.49935)"
         id="g5947">
        <path
           inkscape:connector-curvature="0"
           id="path5949"
           style="fill:#7d7d7d;fill-opacity:1;fill-rule:nonzero;stroke:none"
           d="M 0,0 2.334,12.016 H 4.167 L 3.835,10.31 c 1.136,1.317 2.538,1.976 4.204,1.976 0.723,0 1.361,-0.13 1.918,-0.391 0.555,-0.259 0.942,-0.601 1.162,-1.023 C 11.338,10.45 11.451,9.948 11.461,9.368 11.463,8.99 11.372,8.33 11.189,7.388 L 9.752,0 H 7.704 L 9.127,7.317 C 9.288,8.149 9.331,8.769 9.252,9.181 9.176,9.593 8.959,9.922 8.605,10.167 8.253,10.411 7.806,10.535 7.266,10.535 6.403,10.535 5.605,10.259 4.872,9.707 4.138,9.156 3.623,8.111 3.323,6.57 L 2.047,0 Z" />
      </g>
      <g
         transform="matrix(0.35277777,0,0,-0.35277777,197.72164,226.29975)"
         id="g5951">
        <path
           inkscape:connector-curvature="0"
           id="path5953"
           style="fill:#7d7d7d;fill-opacity:1;fill-rule:nonzero;stroke:none"
           d="m 0,0 c -0.306,-1.576 -0.217,-2.727 0.269,-3.45 0.486,-0.726 1.201,-1.088 2.145,-1.088 0.936,0 1.789,0.36 2.564,1.082 0.775,0.72 1.311,1.85 1.609,3.389 C 6.874,1.404 6.764,2.513 6.256,3.26 5.748,4.006 5.034,4.381 4.113,4.381 3.206,4.381 2.366,4.013 1.588,3.278 0.811,2.541 0.282,1.45 0,0 m -3.103,-7.232 1.915,-0.269 c -0.036,-0.615 0.107,-1.062 0.433,-1.344 0.435,-0.38 1.092,-0.568 1.973,-0.568 0.947,0 1.716,0.186 2.305,0.562 0.59,0.376 1.041,0.901 1.354,1.576 0.188,0.414 0.405,1.28 0.655,2.604 -1.096,-1.043 -2.309,-1.564 -3.639,-1.564 -1.657,0 -2.822,0.596 -3.497,1.788 -0.677,1.191 -0.852,2.62 -0.528,4.288 0.222,1.146 0.636,2.203 1.24,3.172 0.604,0.969 1.352,1.718 2.244,2.246 0.893,0.528 1.871,0.792 2.938,0.792 1.421,0 2.479,-0.584 3.173,-1.751 l 0.288,1.481 h 1.86 L 7.592,-4.605 C 7.229,-6.476 6.779,-7.802 6.247,-8.582 5.714,-9.362 4.991,-9.979 4.078,-10.433 c -0.916,-0.452 -1.977,-0.678 -3.183,-0.678 -1.432,0 -2.529,0.322 -3.285,0.966 -0.758,0.646 -0.995,1.616 -0.713,2.913" />
      </g>
      <g
         transform="matrix(0.35277777,0,0,-0.35277777,201.32029,227.23517)"
         id="g5955">
        <path
           inkscape:connector-curvature="0"
           id="path5957"
           style="fill:#7d7d7d;fill-opacity:1;fill-rule:nonzero;stroke:none"
           d="m 0,0 2.084,0.323 c -0.046,-0.809 0.15,-1.429 0.583,-1.858 0.431,-0.433 1.112,-0.647 2.042,-0.647 0.936,0 1.664,0.191 2.193,0.572 0.526,0.382 0.838,0.829 0.938,1.342 C 7.932,0.193 7.802,0.556 7.456,0.819 7.211,1.002 6.561,1.231 5.507,1.512 4.087,1.888 3.114,2.213 2.592,2.489 2.069,2.764 1.706,3.145 1.503,3.631 1.298,4.116 1.255,4.654 1.369,5.241 1.472,5.777 1.691,6.274 2.026,6.73 2.359,7.186 2.765,7.564 3.248,7.866 3.608,8.1 4.08,8.297 4.659,8.46 5.235,8.622 5.84,8.702 6.465,8.702 7.407,8.702 8.21,8.567 8.87,8.295 9.529,8.024 9.983,7.656 10.233,7.194 10.484,6.73 10.596,6.111 10.574,5.336 L 8.53,5.065 C 8.559,5.683 8.39,6.166 8.024,6.512 7.658,6.858 7.079,7.033 6.285,7.033 5.349,7.033 4.652,6.877 4.193,6.568 3.732,6.257 3.463,5.895 3.382,5.48 3.329,5.215 3.367,4.978 3.493,4.766 3.614,4.547 3.839,4.365 4.166,4.222 4.355,4.147 4.922,3.973 5.865,3.701 7.23,3.317 8.174,3.003 8.699,2.758 9.222,2.512 9.6,2.155 9.836,1.688 10.069,1.221 10.118,0.641 9.983,-0.053 9.852,-0.732 9.529,-1.371 9.017,-1.97 8.505,-2.569 7.84,-3.034 7.031,-3.361 6.218,-3.688 5.34,-3.853 4.395,-3.853 2.832,-3.853 1.703,-3.528 1.01,-2.881 0.314,-2.233 -0.022,-1.273 0,0" />
      </g>
    </g>
  </g>
</svg>
