<?xml version="1.0" encoding="utf-8" ?>
<svg xmlns="http://www.w3.org/2000/svg" xmlns:xlink="http://www.w3.org/1999/xlink" width="120" height="26" viewbox="0 0 120 26">
	<defs>
		<clipPath id="clip_0">
			<rect x="-169.78088" y="-21" width="1361.3556" height="6775.8833" clip-rule="evenodd"/>
		</clipPath>
	</defs>
	<g clip-path="url(#clip_0)">
		<rect fill="rgb(255,255,255)" stroke="none" transform="matrix(0.9966 0 0 0.9966 0.637817 0.9252)" width="119.40741" height="26"/>
	</g>
	<defs>
		<clipPath id="clip_1">
			<rect x="-169.78088" y="-21" width="1361.3556" height="6775.8833" clip-rule="evenodd"/>
		</clipPath>
	</defs>
	<g clip-path="url(#clip_1)">
		<path fill="rgb(0,167,219)" stroke="none" transform="matrix(0.9966 0 0 0.9966 32.0294 2.59659)" d="M7.74794 11.973C4.43258 11.973 1.72681 9.28489 1.72681 5.98481C1.72681 2.67222 4.41856 0 7.73586 0L10.2681 0L10.2681 3.38385L7.76438 3.38722C6.34696 3.38722 5.19446 4.5317 5.19446 5.94918C5.19446 7.36667 6.34696 8.52318 7.76438 8.52318C12.0543 8.52318 15.5288 11.9817 15.5288 16.2553C15.5288 20.5256 12.0543 23.9816 7.76438 23.9816C3.48118 23.9816 0 20.5256 0 16.2553C0 15.978 0.0135361 15.6963 0.0401248 15.4204L3.55418 15.4204C3.49859 15.6934 3.48118 15.9693 3.48118 16.2553C3.48118 18.616 5.3975 20.5333 7.76438 20.5333C10.1356 20.5333 12.0543 18.616 12.0543 16.2553C12.0543 13.8917 10.1177 11.973 7.74794 11.973"/>
	</g>
	<defs>
		<clipPath id="clip_2">
			<rect x="-169.78088" y="-21" width="1361.3556" height="6775.8833" clip-rule="evenodd"/>
		</clipPath>
	</defs>
	<g clip-path="url(#clip_2)">
		<path fill="rgb(0,167,219)" stroke="none" transform="matrix(0.9966 0 0 0.9966 45.7045 2.60403)" d="M26.6864 0L30.9352 0L30.9323 0.00481481L30.9323 23.984L27.4937 23.984L27.4937 20.9353L24.0778 20.9353L24.0778 23.984L20.6348 23.984L20.6348 20.9353L9.06675 20.9353L6.88599 23.9913L6.85747 23.9609L3.44009 23.9609L3.44009 3.43007L0 3.43007L0 0.00481481L10.3116 0.00481481L10.3116 3.43007L6.8739 3.43007L6.8739 18.0787L19.8342 0L24.0811 0L24.0778 0.00481481L24.0778 3.64289L26.6864 0ZM20.6348 17.8543L11.2833 17.8543L20.6348 4.80278L20.6348 17.8543ZM27.4937 17.8543L24.0778 17.8543L24.0778 9.56993L27.4937 4.80278L27.4937 17.8543Z" fill-rule="evenodd"/>
	</g>
	<defs>
		<clipPath id="clip_3">
			<rect x="-169.78088" y="-21" width="1361.3556" height="6775.8833" clip-rule="evenodd"/>
		</clipPath>
	</defs>
	<g clip-path="url(#clip_3)">
		<path fill="rgb(0,167,219)" stroke="none" transform="matrix(0.9966 0 0 0.9966 77.3595 2.60379)" d="M15.537 23.9917L7.86735 13.3038C7.35637 13.7728 6.78882 14.171 6.16568 14.4926L12.9801 23.9917L8.6829 23.9917L0 11.8984L2.60811 11.8984C4.94792 11.8984 6.85312 10.0134 6.85312 7.67337C6.85312 5.34011 4.94792 3.4397 2.60811 3.4397L0.241232 3.4397L0.241232 0L0.369341 0L9.48298 0.00481481C13.7497 0.00481481 17.1835 3.42622 17.1835 7.67337C17.1835 10.6417 15.4915 13.209 13.0275 14.4926L19.8415 23.9917L15.537 23.9917ZM13.7082 7.67337C13.7082 5.34011 11.8102 3.4397 9.47718 3.4397L9.05611 3.4397C9.86247 4.65641 10.3319 6.11337 10.3319 7.67337C10.3319 9.23818 9.84652 10.6927 9.04209 11.8984L9.47718 11.8984C11.8102 11.8984 13.7082 10.0134 13.7082 7.67337Z" fill-rule="evenodd"/>
	</g>
	<defs>
		<clipPath id="clip_4">
			<rect x="-169.78088" y="-21" width="1361.3556" height="6775.8833" clip-rule="evenodd"/>
		</clipPath>
	</defs>
	<g clip-path="url(#clip_4)">
		<path fill="rgb(0,167,219)" stroke="none" transform="matrix(0.9966 0 0 0.9966 95.4128 2.60869)" d="M10.3116 0L0 0L0 3.42574L3.43284 3.42574L3.43284 23.9922L6.87003 23.9922L6.87003 3.42574L10.3116 3.42574L10.3116 0Z"/>
	</g>
	<defs>
		<clipPath id="clip_5">
			<rect x="104.02942" y="2.6439056" width="15.482086" height="23.912569" clip-rule="evenodd"/>
		</clipPath>
	</defs>
	<g clip-path="url(#clip_5)">
		<path fill="rgb(0,167,219)" stroke="none" transform="matrix(0.9966 0 0 0.9966 104.029 2.64391)" d="M7.75278 11.9735C4.44128 11.9735 1.73745 9.28248 1.73745 5.97711C1.73745 2.67993 4.42242 0 7.73296 0L10.27 0L10.27 3.38289L7.7668 3.38578C6.34793 3.38578 5.19398 4.53074 5.19398 5.95304C5.19398 7.36089 6.34793 8.51307 7.7668 8.51307C12.0534 8.51307 15.535 11.9754 15.535 16.2553C15.535 20.5222 12.0534 23.9942 7.7668 23.9942C3.47732 23.9942 0 20.5222 0 16.2553C0 15.9707 0.0169201 15.6934 0.0536608 15.4185L3.55563 15.4166C3.50391 15.6881 3.47732 15.9674 3.47732 16.2553C3.47732 18.6102 5.39605 20.5256 7.7668 20.5256C10.14 20.5256 12.063 18.6102 12.063 16.2553C12.063 13.8888 10.1303 11.9735 7.75278 11.9735"/>
	</g>
	<defs>
		<clipPath id="clip_6">
			<rect x="-169.78088" y="-21" width="1361.3556" height="6775.8833" clip-rule="evenodd"/>
		</clipPath>
	</defs>
	<g clip-path="url(#clip_6)">
		<path fill="rgb(0,167,219)" stroke="none" transform="matrix(0.9966 0 0 0.9966 0.637817 0.9252)" d="M7.36362 13.9456C7.36362 10.2994 10.3411 7.33922 14.0011 7.33922C17.6689 7.33922 20.6352 10.2994 20.6352 13.9456C20.6352 17.5986 17.6689 20.5583 14.0011 20.5583C10.3411 20.5583 7.36362 17.5986 7.36362 13.9456M14.0011 22.7572C9.1146 22.7572 5.17464 18.8134 5.17464 13.9456C5.17464 9.08363 9.1146 5.14367 14.0011 5.14367C18.8852 5.14367 22.8305 9.08363 22.8305 13.9456C22.8305 18.8134 18.8852 22.7572 14.0011 22.7572M14.0011 0C6.26575 0 0 6.2477 0 13.9456C0 18.8784 2.56218 23.2108 6.43978 25.6846L21.5658 25.6846C25.4396 23.2108 28.0056 18.8784 28.0056 13.9456C28.0056 6.2477 21.7409 0 14.0011 0"/>
	</g>

</svg>