<?xml version="1.0" encoding="UTF-8"?><svg id="b" xmlns="http://www.w3.org/2000/svg" width="240" height="110.81" viewBox="0 0 240 110.81"><defs><style>.d{fill:#e01383;}.e{fill:#00518a;}</style></defs><g id="c"><path class="e" d="m121,77.54c-3.31,0-6.84.92-9.92,2.53l4.95-13.9h-43.65l-2.26,6.38h13.45l-8.63,24.42h9.16l8.67-24.42h12.36s-8.69,24.42-8.69,24.42h8.63l4.44-12.44c3.02-1.6,5.45-2.36,7.42-2.36s2.76,1.21,2.32,2.56l-4.45,12.24h8.75l4.31-12.37c1.59-4.49-1.32-7.05-6.84-7.05"/><path class="e" d="m155.3,96.94h-8.62l.72-1.82c-3.04,1.81-5.59,2.82-9.05,2.86-5.92.06-9.71-3.68-8.96-8.62.85-5.72,7.19-11.87,22.95-11.87,3.67,0,6.15.08,9.68.56l-6.72,18.89Zm-3.48-14.47c-10.71-.74-13.15,4.9-13.51,7.33-.35,2.38,1.05,3.77,3.68,3.77,1.99,0,4.37-.6,6.54-1.73l3.3-9.37Z"/><path class="e" d="m166.59,79.45l-6.29,17.51h8.58l7.46-20.72c-3.14,1.83-6.48,2.9-9.75,3.21"/><path class="e" d="m188.67,98c-8.34,0-14.18-4.19-13.38-9.55.9-6.01,9.26-10.99,18.56-10.99,8.39,0,13.99,3.67,13.14,9.33-.94,6.34-8.9,11.21-18.33,11.21m4.24-15.5c-5.58,0-8.03,4.46-8.34,6.44-.44,2.96,2.55,4.35,5.09,4.35,4.96,0,8-3.79,8.4-6.48.38-2.58-1.64-4.3-5.15-4.3"/><path class="e" d="m212.96,79.44l-6.26,17.52h8.48l7.48-20.72c-3.15,1.82-6.43,2.89-9.71,3.2"/><path class="e" d="m230.16,69.39l-9.8,27.57h8.7l10.94-30.77c-3.13,1.83-6.56,2.89-9.84,3.2"/><path class="d" d="m62.55,69.54C5.2,48.59,7.21,0,7.21,0c0,0-32.53,83.46,40.65,110.81l14.69-41.27Z"/><path class="d" d="m72.76,40.87C37.25,28,38.23,0,38.23,0c0,0-16.84,50.8,25.52,66.16l9-25.29Z"/></g></svg>